<svg width="45" height="44" viewBox="0 0 45 44" fill="none" xmlns="http://www.w3.org/2000/svg">
<rect x="0.457031" width="44" height="44" rx="22" fill="#EBEFF4"/>
<path d="M22.4568 23.4L17.5568 28.3C17.3735 28.4833 17.1402 28.575 16.8568 28.575C16.5735 28.575 16.3402 28.4833 16.1568 28.3C15.9735 28.1167 15.8818 27.8833 15.8818 27.6C15.8818 27.3167 15.9735 27.0833 16.1568 26.9L21.0568 22L16.1568 17.1C15.9735 16.9167 15.8818 16.6833 15.8818 16.4C15.8818 16.1167 15.9735 15.8833 16.1568 15.7C16.3402 15.5167 16.5735 15.425 16.8568 15.425C17.1402 15.425 17.3735 15.5167 17.5568 15.7L22.4568 20.6L27.3568 15.7C27.5402 15.5167 27.7735 15.425 28.0568 15.425C28.3402 15.425 28.5735 15.5167 28.7568 15.7C28.9402 15.8833 29.0318 16.1167 29.0318 16.4C29.0318 16.6833 28.9402 16.9167 28.7568 17.1L23.8568 22L28.7568 26.9C28.9402 27.0833 29.0318 27.3167 29.0318 27.6C29.0318 27.8833 28.9402 28.1167 28.7568 28.3C28.5735 28.4833 28.3402 28.575 28.0568 28.575C27.7735 28.575 27.5402 28.4833 27.3568 28.3L22.4568 23.4Z" fill="#58595D"/>
</svg>
