<svg width="69" height="17" viewBox="0 0 69 17" fill="none" xmlns="http://www.w3.org/2000/svg">
<g clip-path="url(#clip0_26_157)">
<path d="M9.06255 7.1667L0.291016 0.588051V13.7454L9.06255 7.1667Z" fill="#00BBFF"/>
<path d="M6.86956 3.21952H5.11536L1.60675 0.588055H6.86956C10.5029 0.588055 13.4482 3.53342 13.4482 7.16671C13.4482 10.8 10.5029 13.7454 6.86956 13.7454H1.60675L5.11536 11.1139H6.86956C9.04954 11.1139 10.8168 9.34668 10.8168 7.16671C10.8168 4.98673 9.04954 3.21952 6.86956 3.21952Z" fill="white"/>
<path fill-rule="evenodd" clip-rule="evenodd" d="M25.2899 8.48244C25.2899 11.3891 22.9336 13.7454 20.027 13.7454C17.1203 13.7454 14.7641 11.3891 14.7641 8.48244C14.7641 5.5758 17.1203 3.21952 20.027 3.21952C22.9336 3.21952 25.2899 5.5758 25.2899 8.48244ZM22.6584 8.48244C22.6584 9.93575 21.4803 11.1139 20.027 11.1139C18.5737 11.1139 17.3955 9.93575 17.3955 8.48244C17.3955 7.02912 18.5737 5.85098 20.027 5.85098C21.4803 5.85098 22.6584 7.02912 22.6584 8.48244Z" fill="white"/>
<path d="M31.8685 3.21952C28.962 3.21952 26.6056 5.57577 26.6056 8.48244V16.3768H29.2371V8.48244C29.2371 7.02914 30.4153 5.85098 31.8685 5.85098C33.3218 5.85098 34.5 7.02914 34.5 8.48244C34.5 9.93573 33.3218 11.1139 31.8685 11.1139H29.895L31.8685 13.7454C34.7752 13.7454 37.1315 11.389 37.1315 8.48244C37.1315 5.57585 34.7752 3.21952 31.8685 3.21952Z" fill="white"/>
<path d="M45.6837 8.48244C45.6837 5.57585 48.04 3.21952 50.9466 3.21952C53.8532 3.21952 56.2096 5.57577 56.2096 8.48244V13.7454H53.5781V8.48244C53.5781 7.02914 52.3999 5.85098 50.9466 5.85098C49.4933 5.85098 48.3152 7.02914 48.3152 8.48244C48.3152 9.93573 49.4933 11.1139 50.9466 11.1139H52.9202L50.9466 13.7454C48.04 13.7454 45.6837 11.389 45.6837 8.48244Z" fill="white"/>
<path d="M43.0523 3.21952H42.3944C40.2144 3.21952 38.4472 4.98673 38.4472 7.16671V13.7454H41.0787V7.16671C41.0787 6.44002 41.6677 5.85098 42.3944 5.85098H45.0259L43.0523 3.21952Z" fill="white"/>
<path d="M60.8146 3.21952L62.6238 5.63169L60.9791 7.82457L57.5253 3.21952H60.8146Z" fill="white"/>
<path d="M68.709 3.21952H65.4197L57.5253 13.7454H60.8146L63.1171 10.6753L65.4197 13.7454H68.709L64.7618 8.48244L68.709 3.21952Z" fill="white"/>
</g>
<defs>
<clipPath id="clip0_26_157">
<rect width="68.418" height="15.7888" fill="white" transform="translate(0.291016 0.588051)"/>
</clipPath>
</defs>
</svg>
